<svg width="243" height="399" viewBox="0 0 243 399" fill="none" xmlns="http://www.w3.org/2000/svg">
<g clip-path="url(#clip0_1_2)">
<path d="M0 199.26C0.0734825 163.751 9.0836 128.832 26.2 97.72C47.39 58.72 80.4 25.07 121.49 0.0200043V398.5C80.4 373.5 47.39 339.84 26.2 300.81C9.08238 269.695 0.0722339 234.772 0 199.26H0Z" fill="#1D1D1B"/>
<path d="M121.49 398.5V0C162.54 25.07 195.57 58.69 216.78 97.71C233.956 128.801 242.966 163.74 242.966 199.26C242.966 234.78 233.956 269.719 216.78 300.81C195.59 339.81 162.54 373.46 121.49 398.51V398.5Z" fill="white"/>
<path d="M36.0745 286.445L31.4499 276.203L34.2074 274.958L35.8675 278.635L45.6721 274.208L44.012 270.531L46.7696 269.286L51.3941 279.528L48.6366 280.773L46.9765 277.097L37.1719 281.524L38.832 285.2L36.0745 286.445Z" fill="white"/>
<path d="M39.7351 254.538L39.6 254.128L25.1384 258.885L24.1479 255.874L40.115 250.622L42.051 256.507L28.2047 263.135L28.3398 263.545L42.8014 258.788L43.7919 261.799L27.8249 267.051L25.8888 261.166L39.7351 254.538Z" fill="white"/>
<path d="M21.6402 246.734L19.1343 234.893L22.0943 234.267L23.0191 238.637L36.5037 235.783L37.16 238.884L23.6754 241.738L24.6002 246.107L21.6402 246.734Z" fill="white"/>
<path d="M17.609 225.081L16.5567 214.519L19.5674 214.219L20.3054 221.627L24.1285 221.246L23.4191 214.125L26.4298 213.825L27.1392 220.946L31.0101 220.56L30.2435 212.866L33.2542 212.566L34.3351 223.414L17.609 225.081Z" fill="white"/>
<path d="M32.92 192.832L32.8957 196.002L27.8532 195.963C27.469 195.96 27.156 196.062 26.9143 196.268C26.6727 196.458 26.5501 196.786 26.5466 197.25L26.5185 200.9L32.8577 200.948L32.8333 204.118L16.0249 203.989L16.0744 197.554C16.081 196.689 16.2069 195.93 16.4521 195.275C16.6972 194.621 17.0376 194.079 17.4731 193.65C17.8928 193.205 18.3836 192.873 18.9456 192.653C19.5077 192.417 20.1089 192.302 20.7493 192.306L21.3255 192.311C22.0139 192.316 22.6608 192.505 23.2663 192.878C23.8557 193.251 24.3076 193.823 24.6219 194.593L25.0541 194.597C25.1224 194.037 25.3419 193.598 25.7125 193.281C26.0833 192.948 26.5488 192.783 27.1091 192.788L32.92 192.832ZM23.493 200.876L23.5162 197.851C23.5221 197.082 23.3505 196.497 23.0014 196.094C22.6363 195.691 22.1256 195.487 21.4693 195.482L21.1811 195.48C20.6209 195.475 20.1391 195.672 19.7358 196.069C19.3165 196.466 19.1039 197.049 19.098 197.817L19.0748 200.842L23.493 200.876Z" fill="white"/>
<path d="M22.7783 174.766C22.1104 174.688 21.4996 174.883 20.9458 175.351C20.3939 175.803 20.0636 176.498 19.9549 177.436C19.8627 178.231 19.9569 178.879 20.2374 179.378C20.502 179.876 20.9126 180.158 21.4692 180.222C21.7554 180.255 22.0242 180.23 22.2757 180.146C22.5112 180.061 22.74 179.894 22.9622 179.646C23.1703 179.38 23.3717 179.033 23.5664 178.604C23.763 178.159 23.9654 177.595 24.1737 176.91C24.6944 175.197 25.3819 173.923 26.2362 173.087C27.0905 172.252 28.2491 171.919 29.7121 172.088L29.9983 172.121C30.7775 172.212 31.4686 172.437 32.0715 172.797C32.6604 173.139 33.147 173.598 33.5315 174.175C33.9159 174.751 34.1841 175.427 34.336 176.202C34.4879 176.977 34.5095 177.833 34.4008 178.772C34.2737 179.869 34.0102 180.821 33.6104 181.629C33.1965 182.419 32.687 183.061 32.0818 183.555C31.4608 184.047 30.7679 184.394 30.0032 184.595C29.2227 184.795 28.3951 184.844 27.5205 184.743L26.8049 184.66L27.1697 181.511L27.7422 181.578C28.744 181.694 29.5803 181.501 30.2509 180.998C30.9074 180.478 31.3067 179.606 31.4486 178.381C31.5591 177.427 31.4344 176.695 31.0744 176.186C30.7144 175.677 30.2481 175.39 29.6757 175.323C29.4053 175.292 29.1454 175.31 28.8958 175.378C28.6303 175.444 28.3883 175.585 28.1698 175.801C27.9355 176.016 27.7148 176.321 27.5079 176.716C27.301 177.111 27.105 177.62 26.92 178.243C26.6792 179.069 26.4069 179.819 26.1032 180.493C25.7836 181.165 25.4026 181.742 24.9601 182.222C24.5195 182.687 23.9964 183.029 23.3907 183.249C22.7851 183.469 22.0688 183.531 21.2419 183.435L21.0988 183.419C20.415 183.339 19.8025 183.131 19.2614 182.795C18.7062 182.44 18.2424 181.992 17.8702 181.449C17.4998 180.89 17.2359 180.247 17.0785 179.52C16.9228 178.777 16.8957 177.968 16.9971 177.093C17.1113 176.107 17.3558 175.249 17.7305 174.519C18.0893 173.787 18.5367 173.194 19.0727 172.741C19.6106 172.271 20.2043 171.945 20.854 171.763C21.5055 171.564 22.1732 171.505 22.857 171.584L23.7157 171.683L23.3508 174.832L22.7783 174.766Z" fill="white"/>
<path d="M19.8245 161.251L22.1481 150.891L25.0998 151.561L23.47 158.827L27.2181 159.677L28.7848 152.692L31.7364 153.362L30.1697 160.346L33.9647 161.207L35.6575 153.66L38.6091 154.329L36.2223 164.97L19.8245 161.251Z" fill="white"/>
<path d="M40.2681 140.039C40.4674 139.464 40.5469 138.967 40.5064 138.546C40.4561 138.105 40.3213 137.736 40.1021 137.44C39.8731 137.123 39.5826 136.862 39.2308 136.655C38.8638 136.443 38.4761 136.266 38.0677 136.124L37.6594 135.983L38.6981 132.988L39.1065 133.13C40.997 133.785 42.2834 134.791 42.9656 136.146C43.6379 137.48 43.6462 139.093 42.9905 140.984C42.3609 142.798 41.3105 144.044 39.8392 144.72C38.3679 145.395 36.5735 145.366 34.4561 144.631L30.9169 143.404C29.9036 143.052 29.0434 142.601 28.3362 142.051C27.6139 141.496 27.0697 140.866 26.7036 140.163C26.3224 139.455 26.114 138.688 26.0784 137.862C26.0277 137.031 26.1598 136.162 26.4746 135.255C26.7998 134.317 27.2245 133.532 27.7485 132.901C28.2726 132.269 28.8757 131.801 29.5578 131.495C30.2451 131.174 30.9938 131.019 31.8037 131.029C32.6189 131.023 33.4802 131.178 34.3876 131.493L34.796 131.635L33.7572 134.629L33.3489 134.488C32.9708 134.356 32.5769 134.271 32.1673 134.23C31.7578 134.19 31.365 134.223 30.9891 134.33C30.6131 134.437 30.2715 134.64 29.964 134.94C29.6415 135.235 29.3858 135.655 29.197 136.199C29.0238 136.698 28.9726 137.163 29.0433 137.594C29.0989 138.02 29.2511 138.412 29.4999 138.769C29.7336 139.122 30.0488 139.434 30.4454 139.707C30.8322 139.96 31.26 140.168 31.7288 140.331L35.7217 141.715C36.2359 141.894 36.7307 142.006 37.206 142.052C37.6662 142.093 38.0945 142.056 38.4908 141.939C38.8871 141.822 39.2389 141.614 39.5463 141.314C39.8439 140.993 40.0844 140.569 40.2681 140.039Z" fill="white"/>
<path d="M32.3008 121.04L37.4985 110.092L40.2324 111.398L38.3142 115.438L50.7686 121.389L49.4073 124.256L36.9529 118.306L35.0347 122.346L32.3008 121.04Z" fill="white"/>
<path d="M206.426 111.1L211.104 121.318L208.353 122.577L206.674 118.909L196.893 123.388L198.572 127.056L195.821 128.315L191.143 118.097L193.894 116.838L195.573 120.506L205.354 116.027L203.675 112.359L206.426 111.1Z" fill="#1D1D1B"/>
<path d="M202.948 143.038L203.086 143.447L217.521 138.612L218.528 141.617L202.59 146.956L200.622 141.082L214.432 134.379L214.295 133.969L199.859 138.805L198.852 135.799L214.791 130.46L216.759 136.335L202.948 143.038Z" fill="#1D1D1B"/>
<path d="M221.2 150.776L223.752 162.645L220.784 163.281L219.842 158.901L206.322 161.798L205.654 158.689L219.174 155.792L218.233 151.412L221.2 150.776Z" fill="#1D1D1B"/>
<path d="M225.119 172.483L226.185 183.044L223.174 183.348L222.427 175.941L218.604 176.327L219.323 183.447L216.312 183.751L215.594 176.631L211.723 177.022L212.5 184.716L209.489 185.02L208.394 174.173L225.119 172.483Z" fill="#1D1D1B"/>
<path d="M210.081 204.731L210.095 201.561L215.138 201.584C215.522 201.586 215.835 201.483 216.076 201.276C216.317 201.085 216.438 200.757 216.44 200.293L216.457 196.643L210.118 196.614L210.132 193.445L226.941 193.521L226.912 199.956C226.908 200.821 226.784 201.581 226.541 202.236C226.298 202.891 225.959 203.434 225.525 203.864C225.107 204.311 224.617 204.645 224.056 204.866C223.494 205.104 222.894 205.221 222.253 205.218L221.677 205.215C220.989 205.212 220.341 205.025 219.734 204.654C219.144 204.283 218.69 203.713 218.373 202.943L217.941 202.941C217.875 203.501 217.657 203.941 217.287 204.259C216.917 204.594 216.452 204.76 215.892 204.757L210.081 204.731ZM219.483 196.657L219.469 199.682C219.465 200.451 219.639 201.036 219.989 201.438C220.356 201.84 220.867 202.042 221.523 202.045L221.811 202.046C222.372 202.049 222.853 201.851 223.255 201.453C223.673 201.054 223.884 200.471 223.887 199.703L223.901 196.677L219.483 196.657Z" fill="#1D1D1B"/>
<path d="M220.341 222.719C221.01 222.793 221.619 222.595 222.171 222.124C222.72 221.669 223.047 220.973 223.15 220.034C223.238 219.238 223.14 218.591 222.857 218.093C222.59 217.596 222.178 217.317 221.621 217.256C221.335 217.224 221.066 217.251 220.815 217.336C220.58 217.423 220.352 217.591 220.131 217.84C219.924 218.107 219.725 218.456 219.533 218.885C219.338 219.331 219.139 219.897 218.934 220.583C218.423 222.298 217.742 223.576 216.893 224.416C216.043 225.257 214.886 225.596 213.422 225.434L213.136 225.403C212.356 225.317 211.664 225.095 211.059 224.739C210.468 224.4 209.979 223.943 209.592 223.369C209.204 222.794 208.932 222.12 208.776 221.346C208.62 220.572 208.594 219.715 208.697 218.776C208.819 217.678 209.077 216.725 209.472 215.915C209.882 215.122 210.388 214.478 210.99 213.98C211.609 213.485 212.3 213.134 213.063 212.929C213.843 212.725 214.67 212.671 215.545 212.768L216.261 212.847L215.913 215.998L215.341 215.934C214.338 215.824 213.503 216.021 212.835 216.527C212.181 217.051 211.787 217.926 211.652 219.151C211.546 220.106 211.675 220.836 212.038 221.344C212.4 221.851 212.868 222.136 213.441 222.199C213.712 222.229 213.971 222.209 214.221 222.14C214.486 222.073 214.727 221.93 214.944 221.713C215.177 221.497 215.396 221.191 215.601 220.795C215.806 220.399 215.999 219.889 216.181 219.264C216.417 218.437 216.685 217.685 216.986 217.01C217.301 216.336 217.679 215.758 218.119 215.275C218.557 214.808 219.079 214.463 219.683 214.239C220.287 214.016 221.003 213.95 221.831 214.042L221.974 214.058C222.658 214.133 223.272 214.338 223.815 214.671C224.372 215.023 224.838 215.469 225.213 216.01C225.587 216.566 225.854 217.208 226.015 217.934C226.175 218.677 226.207 219.485 226.11 220.361C226.001 221.347 225.761 222.206 225.39 222.939C225.036 223.672 224.591 224.268 224.058 224.724C223.523 225.196 222.931 225.526 222.282 225.712C221.631 225.914 220.964 225.977 220.28 225.901L219.421 225.807L219.769 222.656L220.341 222.719Z" fill="#1D1D1B"/>
<path d="M223.639 236.338L221.304 246.749L218.336 246.082L219.974 238.781L216.206 237.935L214.631 244.954L211.664 244.288L213.238 237.269L209.423 236.412L207.722 243.996L204.754 243.33L207.152 232.637L223.639 236.338Z" fill="#1D1D1B"/>
<path d="M203.037 257.531C202.841 258.107 202.764 258.605 202.807 259.026C202.86 259.466 202.996 259.834 203.217 260.129C203.448 260.445 203.74 260.705 204.093 260.91C204.461 261.12 204.85 261.295 205.259 261.434L205.668 261.574L204.645 264.574L204.236 264.434C202.342 263.789 201.05 262.79 200.361 261.439C199.681 260.108 199.664 258.496 200.31 256.602C200.929 254.783 201.973 253.532 203.441 252.849C204.908 252.165 206.703 252.185 208.824 252.908L212.37 254.116C213.385 254.462 214.248 254.908 214.958 255.455C215.683 256.006 216.231 256.633 216.601 257.334C216.986 258.04 217.198 258.806 217.238 259.631C217.294 260.462 217.166 261.332 216.856 262.241C216.536 263.181 216.116 263.967 215.595 264.602C215.075 265.236 214.474 265.708 213.794 266.017C213.108 266.342 212.36 266.501 211.55 266.496C210.735 266.506 209.873 266.355 208.964 266.046L208.555 265.906L209.577 262.906L209.986 263.045C210.365 263.174 210.759 263.258 211.169 263.296C211.579 263.335 211.972 263.299 212.347 263.19C212.722 263.081 213.063 262.876 213.369 262.575C213.69 262.278 213.943 261.857 214.129 261.311C214.299 260.811 214.348 260.346 214.275 259.915C214.217 259.49 214.063 259.099 213.812 258.743C213.577 258.392 213.26 258.081 212.862 257.81C212.473 257.559 212.044 257.354 211.575 257.194L207.574 255.83C207.059 255.655 206.564 255.545 206.088 255.501C205.628 255.463 205.2 255.503 204.804 255.622C204.409 255.741 204.058 255.951 203.752 256.253C203.456 256.575 203.218 257.001 203.037 257.531Z" fill="#1D1D1B"/>
<path d="M211.18 276.433L206.081 287.409L203.337 286.134L205.219 282.083L192.719 276.276L194.054 273.401L206.554 279.209L208.436 275.158L211.18 276.433Z" fill="#1D1D1B"/>
<path fill-rule="evenodd" clip-rule="evenodd" d="M120.99 61.399C99.5863 77.2527 82.164 97.8755 70.1085 121.637C57.904 145.692 51.5436 172.286 51.5436 199.26C51.5436 226.234 57.904 252.828 70.1085 276.883C82.164 300.644 99.5863 321.267 120.99 337.121V61.399ZM121.49 60.41L121.195 60.0065C99.3002 76.0294 81.4923 96.9892 69.2167 121.185C56.9411 145.38 50.5436 172.129 50.5436 199.26C50.5436 226.391 56.9411 253.14 69.2167 277.335C81.4923 301.531 99.3002 322.491 121.195 338.513L121.99 339.095V60.41H121.49Z" fill="#009FE3"/>
<path d="M191.89 199.26C191.923 223.651 186.751 247.767 176.72 270C164.474 297.067 145.455 320.518 121.5 338.09V338.09C99.6689 322.114 81.9127 301.214 69.6726 277.089C57.4325 252.964 51.0536 226.293 51.0536 199.24C51.0536 172.187 57.4325 145.516 69.6726 121.391C81.9127 97.2656 99.6689 76.3665 121.5 60.39V60.39C145.447 77.9691 164.465 101.419 176.72 128.48C186.752 150.726 191.923 174.856 191.89 199.26V199.26Z" fill="#E30613"/>
<path d="M203.89 199.26C203.957 225.377 198.423 251.204 187.66 275C174.559 303.946 154.218 329.026 128.6 347.82L121.51 353V338.11C145.464 320.532 164.479 297.073 176.72 270C186.72 247.747 191.89 223.627 191.89 199.23C191.89 174.833 186.72 150.713 176.72 128.46C164.46 101.41 145.443 77.9708 121.5 60.4V60.4V45.53L128.6 50.74C154.185 69.5527 174.503 94.6291 187.6 123.56C198.372 147.341 203.926 173.153 203.89 199.26V199.26Z" fill="#1D1D1B"/>
<path d="M121.49 45.53V60.41C99.6589 76.3865 81.9027 97.2856 69.6626 121.411C57.4225 145.536 51.0436 172.207 51.0436 199.26C51.0436 226.313 57.4225 252.984 69.6626 277.109C81.9027 301.234 99.6589 322.134 121.49 338.11V353L114.41 347.81C88.7836 329.026 68.4378 303.948 55.34 275C44.6286 251.199 39.0899 225.395 39.0899 199.295C39.0899 173.195 44.6286 147.391 55.34 123.59C68.44 94.6352 88.785 69.5475 114.41 50.75L121.49 45.53Z" fill="white"/>
<path d="M121.23 171.68L85.06 198.87L121.75 226.44L111.84 233.88L51.18 198.87L111.25 164.19L121.15 158.47L176 126.8L177.5 129.39L131.14 164.24L121.23 171.68Z" fill="#1D1D1B"/>
<path d="M177.5 268.33L176 270.92L121.82 239.65L111.84 233.88L121.75 226.44L131.72 233.93L177.5 268.33Z" fill="#1D1D1B"/>
<path d="M111.25 164.19L65.47 129.79L66.97 127.2L121.15 158.47L111.25 164.19Z" fill="white"/>
<path d="M191.79 199.25L131.72 233.93L121.82 239.65L66.97 271.32L65.47 268.73L111.84 233.88L121.75 226.44L157.92 199.25L121.23 171.68L131.14 164.24L191.79 199.25Z" fill="white"/>
</g>
<defs>
<clipPath id="clip0_1_2">
<rect width="242.98" height="398.51" fill="white"/>
</clipPath>
</defs>
</svg>
