<svg xmlns="http://www.w3.org/2000/svg" viewBox="0 0 242.98 398.51"><defs><style>.cls-1,.cls-4{fill:#1d1d1b;}.cls-2,.cls-3{fill:#fff;}.cls-3,.cls-4{font-size:23px;font-family:SpaceMono-Bold, Space Mono;font-weight:700;}.cls-5{fill:none;stroke:#009fe3;stroke-miterlimit:10;}.cls-6{fill:#e30613;}</style></defs><g id="Layer_2" data-name="Layer 2"><g id="Layer_1-2" data-name="Layer 1"><path class="cls-1" d="M0,199.26A211.56,211.56,0,0,1,26.2,97.72c21.19-39,54.2-72.65,95.29-97.7V398.5c-41.09-25-74.1-58.66-95.29-97.69A211.57,211.57,0,0,1,0,199.26Z"/><path class="cls-2" d="M121.49,398.5V0a0,0,0,0,1,0,0c41.05,25.07,74.08,58.69,95.29,97.71a210,210,0,0,1,0,203.1c-21.19,39-54.24,72.65-95.29,97.7Z"/><text class="cls-3" transform="translate(48.46 282.75) rotate(-114.3) scale(1.09 1)">I</text><text class="cls-3" transform="translate(40.45 264.44) rotate(-108.21) scale(1.09 1)">N</text><text class="cls-3" transform="translate(34.44 245.35) rotate(-101.95) scale(1.09 1)">T</text><text class="cls-3" transform="translate(30.55 225.77) rotate(-95.69) scale(1.09 1)">E</text><text class="cls-3" transform="translate(28.82 205.84) rotate(-89.56) scale(1.09 1)">R</text><text class="cls-3" transform="translate(29.22 185.81) rotate(-83.39) scale(1.09 1)">S</text><text class="cls-3" transform="matrix(0.24, -1.07, 0.97, 0.22, 31.77, 165.98)">E</text><text class="cls-3" transform="translate(36.47 146.55) rotate(-70.87) scale(1.09 1)">C</text><text class="cls-3" transform="matrix(0.47, -0.99, 0.9, 0.43, 43.27, 127.72)">T</text><text class="cls-4" transform="translate(194.06 114.86) rotate(65.4) scale(1.09 1)">I</text><text class="cls-4" transform="translate(202.18 133.14) rotate(71.48) scale(1.09 1)">N</text><text class="cls-4" transform="matrix(0.23, 1.07, -0.98, 0.21, 208.3, 152.21)">T</text><text class="cls-4" transform="matrix(0.11, 1.09, -0.99, 0.1, 212.29, 171.8)">E</text><text class="cls-4" transform="translate(214.14 191.71) rotate(90.26) scale(1.09 1)">R</text><text class="cls-4" transform="translate(213.84 211.71) rotate(96.3) scale(1.09 1)">S</text><text class="cls-4" transform="matrix(-0.24, 1.07, -0.98, -0.22, 211.39, 231.56)">E</text><text class="cls-4" transform="translate(206.8 251) rotate(108.82) scale(1.09 1)">C</text><text class="cls-4" transform="translate(200.11 269.86) rotate(114.92) scale(1.09 1)">T</text><path class="cls-5" d="M121.49,60.41v277.7a172.06,172.06,0,0,1,0-277.7Z"/><path class="cls-6" d="M191.89,199.26A171.45,171.45,0,0,1,176.72,270a172.77,172.77,0,0,1-55.22,68.09h0a172.06,172.06,0,0,1,0-277.7h0a173,173,0,0,1,55.22,68.09A171.61,171.61,0,0,1,191.89,199.26Z"/><path class="cls-1" d="M203.89,199.26A182.65,182.65,0,0,1,187.66,275a184.84,184.84,0,0,1-59.06,72.82L121.51,353h0V338.11h0A172.77,172.77,0,0,0,176.72,270a172.66,172.66,0,0,0,0-141.54A173,173,0,0,0,121.5,60.4h0V45.53h0l7.1,5.21a185.18,185.18,0,0,1,59,72.82A182.85,182.85,0,0,1,203.89,199.26Z"/><path class="cls-2" d="M121.49,45.53V60.41a172.06,172.06,0,0,0,0,277.7V353l-7.08-5.19A184.65,184.65,0,0,1,55.34,275a184.47,184.47,0,0,1,0-151.41,184.82,184.82,0,0,1,59.07-72.84Z"/><polygon class="cls-1" points="121.23 171.68 85.06 198.87 121.75 226.44 111.84 233.88 51.18 198.87 111.25 164.19 121.15 158.47 176 126.8 177.5 129.39 131.14 164.24 121.23 171.68"/><polygon class="cls-1" points="177.5 268.33 176 270.92 121.82 239.65 111.84 233.88 121.75 226.44 131.72 233.93 177.5 268.33"/><polygon class="cls-2" points="111.25 164.19 65.47 129.79 66.97 127.2 121.15 158.47 111.25 164.19"/><polygon class="cls-2" points="191.79 199.25 131.72 233.93 121.82 239.65 66.97 271.32 65.47 268.73 111.84 233.88 121.75 226.44 157.92 199.25 121.23 171.68 131.14 164.24 191.79 199.25"/></g></g></svg>